<svg id="svg" fill="#000000" stroke="#000000" width="48" height="48" version="1.1" viewBox="144 144 512 512" xmlns="http://www.w3.org/2000/svg" transform="rotate(90)">
    <g id="IconSvg_bgCarrier" stroke-width="0"></g>
    <g id="IconSvg_tracerCarrier" stroke-linecap="round" stroke-linejoin="round" stroke="#CCCCCC" stroke-width="0">
      <g xmlns="http://www.w3.org/2000/svg">
  <path d="m527.42 364.73c-3.9883 0-7.9766-1.4688-11.125-4.6172l-116.3-116.3-116.3 116.3c-6.0859 6.0898-16.16 6.0898-22.25 0-6.0859-6.0859-6.0859-16.164 0-22.25l127.42-127.42c6.0859-6.0898 16.164-6.0898 22.25 0l127.42 127.42c6.0898 6.0859 6.0898 16.164 0 22.25-2.9375 3.1484-7.1367 4.6172-11.125 4.6172z"></path>
  <path d="m400 594.18c-8.6094 0-15.746-7.1367-15.746-15.746v-353.3c0-8.6055 7.1367-15.742 15.746-15.742 8.6055 0 15.742 7.1367 15.742 15.742v353.3c0 8.6094-7.1367 15.746-15.742 15.746z"></path>
 </g>

      </g>
     <g id="IconSvg_iconCarrier">
      <g xmlns="http://www.w3.org/2000/svg">
  <path d="m527.42 364.73c-3.9883 0-7.9766-1.4688-11.125-4.6172l-116.3-116.3-116.3 116.3c-6.0859 6.0898-16.16 6.0898-22.25 0-6.0859-6.0859-6.0859-16.164 0-22.25l127.42-127.42c6.0859-6.0898 16.164-6.0898 22.25 0l127.42 127.42c6.0898 6.0859 6.0898 16.164 0 22.25-2.9375 3.1484-7.1367 4.6172-11.125 4.6172z"></path>
  <path d="m400 594.18c-8.6094 0-15.746-7.1367-15.746-15.746v-353.3c0-8.6055 7.1367-15.742 15.746-15.742 8.6055 0 15.742 7.1367 15.742 15.742v353.3c0 8.6094-7.1367 15.746-15.742 15.746z"></path>
 </g>

      </g>
      </svg>